<?xml version="1.0" encoding="UTF-8" standalone="no"?>
<!DOCTYPE svg PUBLIC "-//W3C//DTD SVG 1.1//EN"
 "http://www.w3.org/Graphics/SVG/1.1/DTD/svg11.dtd">
<!-- Generated by graphviz version 2.38.0 (20140413.2041)
 -->
<!-- Title: %3 Pages: 1 -->
<svg width="2222pt" height="664pt"
 viewBox="0.00 0.00 2222.00 664.19" xmlns="http://www.w3.org/2000/svg" xmlns:xlink="http://www.w3.org/1999/xlink">
<g id="graph0" class="graph" transform="scale(1 1) rotate(0) translate(4 660.191)">
<title>%3</title>
<polygon fill="white" stroke="none" points="-4,4 -4,-660.191 2218,-660.191 2218,4 -4,4"/>
<g id="clust1" class="cluster"><title>cluster_generic_classe</title>
<polygon fill="lightgreen" stroke="lightgreen" points="210,-131 210,-322.823 1597,-322.823 1597,-131 210,-131"/>
<text text-anchor="start" x="856.5" y="-308.623" font-family="Times,serif" font-weight="bold" font-size="14.00">Generic Classes</text>
</g>
<g id="clust2" class="cluster"><title>cluster_generic_templates</title>
<polygon fill="lightblue" stroke="lightblue" points="1605,-8 1605,-456.279 2171,-456.279 2171,-8 1605,-8"/>
<text text-anchor="start" x="1831.5" y="-442.079" font-family="Times,serif" font-weight="bold" font-size="14.00">Generic Templates</text>
</g>
<g id="clust3" class="cluster"><title>cluster_hacker_news_classes</title>
<polygon fill="lightyellow" stroke="lightyellow" points="8,-355.823 8,-579.191 718,-579.191 718,-355.823 8,-355.823"/>
<text text-anchor="start" x="253.5" y="-564.991" font-family="Times,serif" font-weight="bold" font-size="14.00">Specialized Hacker News Logs Parser</text>
</g>
<!-- ChronoTimer -->
<g id="node1" class="node"><title>ChronoTimer</title>
<ellipse fill="lightgrey" stroke="black" cx="400" cy="-266.368" rx="182.367" ry="25.4118"/>
<text text-anchor="start" x="358.5" y="-270.168" font-family="Times,serif" font-weight="bold" font-size="14.00">ChronoTimer</text>
<text text-anchor="start" x="279" y="-256.168" font-family="Times,serif" font-style="italic" font-size="14.00">Small helper class to measure elapsed time</text>
</g>
<!-- RefString -->
<g id="node2" class="node"><title>RefString</title>
<ellipse fill="lightgrey" stroke="black" cx="743" cy="-164.456" rx="195.737" ry="25.4118"/>
<text text-anchor="start" x="713.5" y="-168.256" font-family="Times,serif" font-weight="bold" font-size="14.00">RefString</text>
<text text-anchor="start" x="612.5" y="-154.256" font-family="Times,serif" font-style="italic" font-size="14.00">A reference string (a const char*, and a length)</text>
</g>
<!-- ReadOnlyMemoryMap -->
<g id="node3" class="node"><title>ReadOnlyMemoryMap</title>
<ellipse fill="lightgrey" stroke="black" cx="1420" cy="-266.368" rx="168.997" ry="25.4118"/>
<text text-anchor="start" x="1350.5" y="-270.168" font-family="Times,serif" font-weight="bold" font-size="14.00">ReadOnlyMemoryMap</text>
<text text-anchor="start" x="1308.5" y="-256.168" font-family="Times,serif" font-style="italic" font-size="14.00">Read&#45;Only mapping of a file in memory</text>
</g>
<!-- RefStringUnorderedHashMap -->
<g id="node4" class="node"><title>RefStringUnorderedHashMap</title>
<ellipse fill="lightgrey" stroke="black" cx="743" cy="-266.368" rx="142.257" ry="25.4118"/>
<text text-anchor="start" x="652.5" y="-270.168" font-family="Times,serif" font-weight="bold" font-size="14.00">RefStringUnorderedHashMap</text>
<text text-anchor="start" x="650.5" y="-256.168" font-family="Times,serif" font-style="italic" font-size="14.00">A reference string unordered map</text>
</g>
<!-- RefStringUnorderedHashMap&#45;&gt;RefString -->
<g id="edge1" class="edge"><title>RefStringUnorderedHashMap&#45;&gt;RefString</title>
<path fill="none" stroke="black" stroke-dasharray="5,2" d="M743,-240.67C743,-228.541 743,-213.717 743,-200.445"/>
<polygon fill="black" stroke="black" points="746.5,-200.215 743,-190.215 739.5,-200.215 746.5,-200.215"/>
<text text-anchor="middle" x="756.5" y="-211.712" font-family="Times,serif" font-size="14.00">Uses</text>
</g>
<!-- RefStringPriorityQueue -->
<g id="node5" class="node"><title>RefStringPriorityQueue</title>
<ellipse fill="lightgrey" stroke="black" cx="1068" cy="-266.368" rx="164.512" ry="25.4118"/>
<text text-anchor="start" x="995.5" y="-270.168" font-family="Times,serif" font-weight="bold" font-size="14.00">RefStringPriorityQueue</text>
<text text-anchor="start" x="959.5" y="-256.168" font-family="Times,serif" font-style="italic" font-size="14.00">Priority queue of RefString with a count</text>
</g>
<!-- RefStringPriorityQueue&#45;&gt;RefString -->
<g id="edge2" class="edge"><title>RefStringPriorityQueue&#45;&gt;RefString</title>
<path fill="none" stroke="black" stroke-dasharray="5,2" d="M996.275,-243.318C946.033,-227.872 878.745,-207.187 826.153,-191.019"/>
<polygon fill="black" stroke="black" points="827.099,-187.648 816.512,-188.055 825.042,-194.339 827.099,-187.648"/>
<text text-anchor="middle" x="938.5" y="-211.712" font-family="Times,serif" font-size="14.00">Uses</text>
</g>
<!-- MappedRecords -->
<g id="node6" class="node"><title>MappedRecords</title>
<ellipse fill="lightgrey" stroke="black" cx="1871" cy="-399.823" rx="258.188" ry="25.4118"/>
<text text-anchor="start" x="1810.5" y="-403.623" font-family="Times,serif" font-weight="bold" font-size="14.00">MappedRecords&lt;T&gt;</text>
<text text-anchor="start" x="1696.5" y="-389.623" font-family="Times,serif" font-style="italic" font-size="14.00">Read&#45;Only mapping of a set of records within a file in memory</text>
</g>
<!-- MappedRecords&#45;&gt;ReadOnlyMemoryMap -->
<g id="edge3" class="edge"><title>MappedRecords&#45;&gt;ReadOnlyMemoryMap</title>
<path fill="none" stroke="black" d="M1786.94,-375.696C1733.59,-360.885 1663.14,-341.085 1601,-322.823 1568.28,-313.207 1532.35,-302.275 1501.18,-292.674"/>
<polygon fill="black" stroke="black" points="1501.83,-289.21 1491.24,-289.606 1499.76,-295.899 1501.83,-289.21"/>
<text text-anchor="middle" x="1698.5" y="-334.623" font-family="Times,serif" font-size="14.00">Inherits</text>
</g>
<!-- RecordLocation -->
<g id="node7" class="node"><title>RecordLocation</title>
<ellipse fill="lightgrey" stroke="black" cx="1876" cy="-266.368" rx="96.7474" ry="25.4118"/>
<text text-anchor="start" x="1815.5" y="-270.168" font-family="Times,serif" font-weight="bold" font-size="14.00">RecordLocation&lt;T&gt;</text>
<text text-anchor="start" x="1831.5" y="-256.168" font-family="Times,serif" font-style="italic" font-size="14.00">Record location</text>
</g>
<!-- MappedRecords&#45;&gt;RecordLocation -->
<g id="edge4" class="edge"><title>MappedRecords&#45;&gt;RecordLocation</title>
<path fill="none" stroke="black" stroke-dasharray="5,2" d="M1871.94,-374.098C1872.71,-353.809 1873.81,-324.841 1874.68,-302.202"/>
<polygon fill="black" stroke="black" points="1878.18,-302.108 1875.06,-291.982 1871.19,-301.842 1878.18,-302.108"/>
<text text-anchor="middle" x="1898.5" y="-334.623" font-family="Times,serif" font-size="14.00">Produces</text>
</g>
<!-- RecordIterator -->
<g id="node8" class="node"><title>RecordIterator</title>
<ellipse fill="lightgrey" stroke="black" cx="1879" cy="-164.456" rx="92.7622" ry="25.4118"/>
<text text-anchor="start" x="1821.5" y="-168.256" font-family="Times,serif" font-weight="bold" font-size="14.00">RecordIterator&lt;T&gt;</text>
<text text-anchor="start" x="1834" y="-154.256" font-family="Times,serif" font-style="italic" font-size="14.00">Records iterator</text>
</g>
<!-- RecordLocation&#45;&gt;RecordIterator -->
<g id="edge5" class="edge"><title>RecordLocation&#45;&gt;RecordIterator</title>
<path fill="none" stroke="black" stroke-dasharray="5,2" d="M1876.74,-240.67C1877.11,-228.541 1877.55,-213.717 1877.95,-200.445"/>
<polygon fill="black" stroke="black" points="1881.45,-200.316 1878.26,-190.215 1874.46,-200.106 1881.45,-200.316"/>
<text text-anchor="middle" x="1902.5" y="-211.712" font-family="Times,serif" font-size="14.00">Produces</text>
</g>
<!-- T -->
<g id="node9" class="node"><title>T</title>
<polygon fill="lightgrey" stroke="black" points="1888,-88 1613,-52 1888,-16 2163,-52 1888,-88"/>
<text text-anchor="start" x="1883" y="-55.8" font-family="Times,serif" font-weight="bold" font-size="14.00">T</text>
<text text-anchor="start" x="1758.5" y="-41.8" font-family="Times,serif" font-style="italic" font-size="14.00">Generic Type, implements specific records API</text>
</g>
<!-- RecordIterator&#45;&gt;T -->
<g id="edge6" class="edge"><title>RecordIterator&#45;&gt;T</title>
<path fill="none" stroke="black" stroke-dasharray="5,2" d="M1881,-138.942C1881.98,-126.872 1883.2,-111.933 1884.34,-97.9125"/>
<polygon fill="black" stroke="black" points="1887.83,-98.1717 1885.15,-87.9205 1880.85,-97.6032 1887.83,-98.1717"/>
<text text-anchor="middle" x="1908.5" y="-109.8" font-family="Times,serif" font-size="14.00">Produces</text>
</g>
<!-- WhyRequest -->
<g id="node10" class="node"><title>WhyRequest</title>
<polygon fill="lightgrey" stroke="black" points="363,-435.823 16,-399.823 363,-363.823 710,-399.823 363,-435.823"/>
<text text-anchor="start" x="313.5" y="-403.623" font-family="Times,serif" font-size="14.00">T = </text>
<text text-anchor="start" x="336.5" y="-403.623" font-family="Times,serif" font-weight="bold" font-size="14.00">WhyRequest</text>
<text text-anchor="start" x="197.5" y="-389.623" font-family="Times,serif" font-style="italic" font-size="14.00">Specialized record type to unserialize a hacker news log line</text>
</g>
<!-- WhyRequest&#45;&gt;RefString -->
<g id="edge7" class="edge"><title>WhyRequest&#45;&gt;RefString</title>
<path fill="none" stroke="black" stroke-dasharray="5,2" d="M233.592,-377.142C204.036,-365.868 176.048,-348.762 158,-322.823 137.208,-292.94 133.961,-268.251 158,-240.912 184.514,-210.758 398.122,-189.23 559.621,-177.076"/>
<polygon fill="black" stroke="black" points="559.982,-180.559 569.694,-176.325 559.461,-173.578 559.982,-180.559"/>
<text text-anchor="middle" x="183.5" y="-262.668" font-family="Times,serif" font-size="14.00">Produces</text>
</g>
<!-- YParser -->
<g id="node11" class="node"><title>YParser</title>
<ellipse fill="lightgrey" stroke="black" cx="412" cy="-522.735" rx="298.298" ry="25.4118"/>
<text text-anchor="start" x="387.5" y="-526.535" font-family="Times,serif" font-weight="bold" font-size="14.00">YParser</text>
<text text-anchor="start" x="209" y="-512.535" font-family="Times,serif" font-style="italic" font-size="14.00">Specialization of mapped records parser to extract hacker news logs stats</text>
</g>
<!-- YParser&#45;&gt;ChronoTimer -->
<g id="edge13" class="edge"><title>YParser&#45;&gt;ChronoTimer</title>
<path fill="none" stroke="black" stroke-dasharray="5,2" d="M593.477,-502.481C649.739,-492.519 701.602,-477.778 719,-456.279 747.086,-421.573 746.313,-391.141 719,-355.823 683.323,-309.691 648.242,-338.25 592,-322.823 556.978,-313.217 518.498,-302.196 485.243,-292.523"/>
<polygon fill="black" stroke="black" points="486.136,-289.137 475.556,-289.7 484.177,-295.858 486.136,-289.137"/>
<text text-anchor="middle" x="753.5" y="-396.123" font-family="Times,serif" font-size="14.00">Uses</text>
</g>
<!-- YParser&#45;&gt;RefStringUnorderedHashMap -->
<g id="edge11" class="edge"><title>YParser&#45;&gt;RefStringUnorderedHashMap</title>
<path fill="none" stroke="black" stroke-dasharray="5,2" d="M638.748,-506.186C699.92,-496.624 753.975,-481.189 771,-456.279 802.869,-409.651 779.929,-341.433 761.01,-301.002"/>
<polygon fill="black" stroke="black" points="764.08,-299.311 756.568,-291.839 757.781,-302.365 764.08,-299.311"/>
<text text-anchor="middle" x="800.5" y="-396.123" font-family="Times,serif" font-size="14.00">Uses</text>
</g>
<!-- YParser&#45;&gt;RefStringPriorityQueue -->
<g id="edge12" class="edge"><title>YParser&#45;&gt;RefStringPriorityQueue</title>
<path fill="none" stroke="black" stroke-dasharray="5,2" d="M635.821,-505.864C680.121,-499.702 725.916,-491.149 768,-479.279 882.124,-447.089 988.742,-349.852 1038.54,-299.051"/>
<polygon fill="black" stroke="black" points="1041.31,-301.226 1045.76,-291.609 1036.28,-296.353 1041.31,-301.226"/>
<text text-anchor="middle" x="990.5" y="-396.123" font-family="Times,serif" font-size="14.00">Uses</text>
</g>
<!-- YParser&#45;&gt;MappedRecords -->
<g id="edge8" class="edge"><title>YParser&#45;&gt;MappedRecords</title>
<path fill="none" stroke="black" d="M643.716,-506.649C756.408,-499.012 893.816,-489.259 1017,-479.279 1246.46,-460.69 1510.29,-435.935 1683.25,-419.244"/>
<polygon fill="black" stroke="black" points="1683.6,-422.726 1693.22,-418.281 1682.93,-415.758 1683.6,-422.726"/>
<text text-anchor="middle" x="1203.5" y="-468.079" font-family="Times,serif" font-size="14.00">Inherits</text>
</g>
<!-- YParser&#45;&gt;T -->
<g id="edge9" class="edge"><title>YParser&#45;&gt;T</title>
<path fill="none" stroke="black" stroke-dasharray="1,5" d="M707.835,-519.153C1186.11,-513.76 2081.73,-498.114 2138,-456.279 2158.91,-440.735 2157,-426.877 2157,-400.823 2157,-400.823 2157,-400.823 2157,-163.456 2157,-112.127 2114.57,-84.1463 2063.41,-69.0649"/>
<polygon fill="black" stroke="black" points="2064.34,-65.6896 2053.77,-66.3962 2062.47,-72.4361 2064.34,-65.6896"/>
<text text-anchor="start" x="2157" y="-263.668" font-family="Times,serif" font-style="italic" font-size="14.00">templated</text>
</g>
<!-- YParser&#45;&gt;WhyRequest -->
<g id="edge10" class="edge"><title>YParser&#45;&gt;WhyRequest</title>
<path fill="none" stroke="black" stroke-dasharray="1,5" d="M402.084,-497.267C395.902,-482.012 387.772,-461.952 380.529,-444.079"/>
<polygon fill="black" stroke="black" points="383.614,-442.372 376.615,-434.419 377.127,-445.001 383.614,-442.372"/>
<text text-anchor="start" x="395" y="-469.079" font-family="Times,serif" font-style="italic" font-size="14.00">templated</text>
</g>
<!-- main -->
<g id="node12" class="node"><title>main</title>
<polygon fill="none" stroke="black" points="460.5,-656.191 363.5,-656.191 363.5,-620.191 460.5,-620.191 460.5,-656.191"/>
<text text-anchor="start" x="396.5" y="-641.991" font-family="Times,serif" font-weight="bold" font-size="14.00">main</text>
<text text-anchor="start" x="371.5" y="-627.991" font-family="Times,serif" font-style="italic" font-size="14.00">main program</text>
</g>
<!-- main&#45;&gt;YParser -->
<g id="edge14" class="edge"><title>main&#45;&gt;YParser</title>
<path fill="none" stroke="black" stroke-dasharray="5,2" d="M412,-619.959C412,-603.701 412,-578.848 412,-558.474"/>
<polygon fill="black" stroke="black" points="415.5,-558.296 412,-548.297 408.5,-558.297 415.5,-558.296"/>
<text text-anchor="middle" x="425.5" y="-590.991" font-family="Times,serif" font-size="14.00">Uses</text>
</g>
</g>
</svg>
